<svg xmlns="http://www.w3.org/2000/svg" viewBox="0 0 64 64" fill="none">
  <circle cx="20" cy="14" r="8" fill="#ffd400" stroke="#1b1b1b" stroke-width="2.5"/>
  <path d="M11 24h18c3.3 0 6 2.7 6 6v15H5V30c0-3.3 2.7-6 6-6Z" fill="#242424" stroke="#1b1b1b" stroke-width="2.5"/>
  <circle cx="44" cy="36" r="14" fill="#f4f4f4" stroke="#1b1b1b" stroke-width="2.5"/>
  <path d="M44 30c3.3 0 6-2 6-4.5s-2.7-4.5-6-4.5" stroke="#ffd400" stroke-width="2.5" stroke-linecap="round"/>
  <path d="M38.5 32c-3.3 0-6-2-6-4.5s2.7-4.5 6-4.5" stroke="#ffd400" stroke-width="2.5" stroke-linecap="round"/>
  <path d="M50 42c3.3 0 6 2 6 4.5S53.3 51 50 51" stroke="#ffd400" stroke-width="2.5" stroke-linecap="round"/>
  <path d="M38 42c-3.3 0-6 2-6 4.5S34.7 51 38 51" stroke="#ffd400" stroke-width="2.5" stroke-linecap="round"/>
  <circle cx="44" cy="36" r="4" fill="#ffd400"/>
</svg>