<svg xmlns="http://www.w3.org/2000/svg" viewBox="0 0 64 64" fill="none">
  <rect x="6" y="28" width="18" height="26" rx="2" stroke="#1b1b1b" stroke-width="2.5" fill="#f4f4f4"/>
  <rect x="40" y="28" width="18" height="26" rx="2" stroke="#1b1b1b" stroke-width="2.5" fill="#f4f4f4"/>
  <path d="M6 36h18" stroke="#1b1b1b" stroke-width="2"/>
  <path d="M40 36h18" stroke="#1b1b1b" stroke-width="2"/>
  <path d="M16 18a7 7 0 1 0 0-14a7 7 0 0 0 0 14Z" fill="#ffd400" stroke="#1b1b1b" stroke-width="2.5"/>
  <path d="M11 20h10c3.3 0 6 2.7 6 6v14H5V26c0-3.3 2.7-6 6-6Z" fill="#242424" stroke="#1b1b1b" stroke-width="2.5"/>
  <path d="m46 42 6.5-6.5" stroke="#ffd400" stroke-width="3" stroke-linecap="round"/>
  <path d="m52.5 43.5-6.5-6.5" stroke="#ffd400" stroke-width="3" stroke-linecap="round"/>
  <circle cx="50" cy="28" r="4" fill="#ffd400" stroke="#1b1b1b" stroke-width="2"/>
</svg>